<svg xmlns="http://www.w3.org/2000/svg" fill-rule="evenodd" stroke-linejoin="round" stroke-miterlimit="2" clip-rule="evenodd" viewBox="0 0 100 100" id="wallet">
  <path d="M90.625 28.333a9.375 9.375 0 0 0-9.375-9.375H18.636a9.375 9.375 0 0 0-9.375 9.375v44.066a9.375 9.375 0 0 0 9.375 9.375H81.25a9.375 9.375 0 0 0 9.375-9.375V28.333Zm-6.25 4.479v-4.479a3.125 3.125 0 0 0-3.125-3.125H18.636a3.125 3.125 0 0 0-3.125 3.125v44.066a3.125 3.125 0 0 0 3.125 3.125H81.25a3.125 3.125 0 0 0 3.125-3.125v-5.212H66.921c-9.486 0-17.188-7.701-17.188-17.187s7.702-17.188 17.188-17.188h17.454Zm0 6.25H66.921c-6.037 0-10.938 4.901-10.938 10.938 0 6.037 4.901 10.937 10.938 10.937h17.454V39.062Z"></path>
  <circle cx="67.187" cy="50" r="6.25"></circle>
</svg>
