<svg xmlns="http://www.w3.org/2000/svg" viewBox="0 0 32 32" id="crypto">
  <g>
    <path d="M16,2A14,14,0,1,0,30,16,14.015,14.015,0,0,0,16,2Zm0,26A12,12,0,1,1,28,16,12.013,12.013,0,0,1,16,28Z"></path>
    <path d="M22,13a4,4,0,0,0-3-3.858V8a1,1,0,0,0-2,0V9H15V8a1,1,0,0,0-2,0V9H12a1,1,0,0,0,0,2h1V21H12a1,1,0,0,0,0,2h1v1a1,1,0,0,0,2,0V23h2v1a1,1,0,0,0,2,0V22.858A3.968,3.968,0,0,0,20.618,16,3.975,3.975,0,0,0,22,13Zm-2,6a2,2,0,0,1-2,2H15V17h3A2,2,0,0,1,20,19Zm-5-4V11h3a2,2,0,0,1,0,4Z"></path>
  </g>
</svg>
