<svg xmlns="http://www.w3.org/2000/svg" fill-rule="evenodd" stroke-linejoin="round" stroke-miterlimit="2" clip-rule="evenodd" viewBox="0 0 32 32" id="transaction-history">
  <path d="M169.276,150.876C168.714,150.317 167.953,150.003 167.16,150.003C164.997,150.003 159.116,150.003 156,150.003C154.343,150.003 153,151.346 153,153.003L153,173.344C153,174.498 153.662,175.55 154.703,176.049C155.744,176.548 156.978,176.406 157.878,175.683L158.374,175.285C158.74,174.992 159.26,174.992 159.626,175.285L162.124,177.291C163.22,178.171 164.779,178.172 165.877,177.294L168.377,175.294C168.742,175.002 169.26,175.001 169.625,175.293L170.143,175.706C171.044,176.425 172.277,176.564 173.316,176.064C174.354,175.564 175.014,174.513 175.014,173.361L175.014,157.831C175.014,157.033 174.696,156.268 174.13,155.705L169.276,150.876ZM166,152.003L156,152.003C155.448,152.003 155,152.45 155,153.003C155,153.003 155,173.344 155,173.344C155,173.729 155.221,174.079 155.568,174.246C155.915,174.412 156.326,174.365 156.626,174.124C156.798,173.986 156.964,173.852 157.122,173.726C158.219,172.845 159.781,172.845 160.878,173.726C160.878,173.726 163.376,175.732 163.376,175.732C163.741,176.025 164.261,176.025 164.627,175.733L167.127,173.732C168.222,172.856 169.777,172.855 170.873,173.729L171.391,174.142C171.691,174.382 172.102,174.428 172.448,174.262C172.794,174.095 173.014,173.745 173.014,173.361L173.014,159L169,159C168.204,159 167.441,158.684 166.879,158.121C166.316,157.559 166,156.796 166,156L166,152.003ZM166.741,171.673L169.707,168.707C169.993,168.421 170.079,167.991 169.924,167.617C169.769,167.244 169.404,167 169,167L159,167C158.448,167 158,167.448 158,168C158,168.552 158.448,169 159,169L166.586,169C166.586,169 165.327,170.259 165.327,170.259C164.936,170.649 164.936,171.283 165.327,171.673C165.717,172.064 166.351,172.064 166.741,171.673ZM161.259,160.327L158.293,163.293C158.007,163.579 157.921,164.009 158.076,164.383C158.231,164.756 158.596,165 159,165L169,165C169.552,165 170,164.552 170,164C170,163.448 169.552,163 169,163L161.414,163C161.414,163 162.673,161.741 162.673,161.741C163.064,161.351 163.064,160.717 162.673,160.327C162.283,159.936 161.649,159.936 161.259,160.327ZM168,152.427L168,156C168,156.265 168.105,156.52 168.293,156.707C168.48,156.895 168.735,157 169,157L172.596,157L168,152.427Z" transform="translate(-148 -148)"></path>
</svg>
